<svg width="139" height="121" viewBox="0 0 139 121" fill="none" xmlns="http://www.w3.org/2000/svg">
<path style="mix-blend-mode:multiply" d="M79.3089 49.8982H60.5022L116.008 81.943C116.579 82.2729 117.053 82.7474 117.383 83.3187C117.712 83.8899 117.886 84.5379 117.886 85.1975C117.886 85.8571 117.712 86.5051 117.383 87.0764C117.053 87.6476 116.579 88.1221 116.008 88.4521L60.5022 120.5H79.3089C81.1404 120.499 82.9394 120.017 84.5253 119.101L136.007 89.3667C136.74 88.9435 137.348 88.3348 137.771 87.6018C138.195 86.8688 138.417 86.0374 138.417 85.191C138.417 84.3447 138.195 83.5133 137.771 82.7803C137.348 82.0474 136.74 81.4387 136.007 81.0154L84.5253 51.2815C82.9384 50.3696 81.1391 49.8925 79.3089 49.8982Z" fill="url(#paint0_linear_101_17756)"/>
<g style="mix-blend-mode:multiply">
<path d="M120.497 85.8505C120.403 84.4058 119.307 82.9062 117.265 81.7201L67.6028 53.0818C63.6728 50.8195 57.7292 50.5706 54.326 52.5356L2.78947 82.318C1.1735 83.2585 0.417248 84.5318 0.50451 85.8505C0.598236 87.2984 1.69386 88.798 3.73645 89.9841L53.3887 118.622C57.3188 120.885 63.2623 121.134 66.6656 119.169L118.199 89.383C119.834 88.4457 120.584 87.1723 120.497 85.8505Z" fill="#9295B2"/>
</g>
<path d="M120.497 84.7806V79.8583L100.362 89.6447L67.6093 70.754C63.6792 68.4916 57.7357 68.2427 54.3325 70.2078L20.6815 89.6544L0.494801 79.8551V84.4089C0.486718 84.5316 0.486718 84.6547 0.494801 84.7773C0.588528 86.222 1.68416 87.7249 3.72674 88.9078L53.3791 117.546C55.5622 118.737 58.0027 119.378 60.4893 119.414C62.7969 119.472 65.014 119.039 66.6623 118.092L118.196 88.3099C119.834 87.3726 120.581 86.0992 120.497 84.7806Z" fill="url(#paint1_linear_101_17756)"/>
<path d="M120.497 79.8551C120.403 78.4072 119.307 76.9076 117.265 75.7215L67.6158 47.0833C63.6857 44.8209 57.7422 44.572 54.3389 46.5403L2.78947 76.3226C1.1735 77.2599 0.417248 78.5333 0.50451 79.8551C0.598236 81.2998 1.69386 82.8027 3.73645 83.9856L53.3887 112.624C57.3188 114.886 63.2623 115.135 66.6656 113.17L118.199 83.3876C119.834 82.4471 120.584 81.1738 120.497 79.8551Z" fill="white"/>
<path d="M120.497 79.4253C120.403 77.9807 119.307 76.4778 117.265 75.2949L67.6158 46.6535C63.6857 44.3911 57.7422 44.1455 54.3389 46.1105L2.78947 75.8993C1.1735 76.8366 0.417248 78.11 0.50451 79.4318C0.598236 80.8765 1.69386 82.3794 3.73645 83.5622L53.3887 112.204C57.3188 114.466 63.2623 114.712 66.6656 112.747L118.199 82.9643C119.834 82.0206 120.584 80.7472 120.497 79.4253Z" fill="url(#paint2_linear_101_17756)"/>
<g opacity="0.2">
<path d="M24.5662 78.517C24.6362 78.5411 24.6969 78.5865 24.7399 78.6467C24.7829 78.707 24.806 78.7791 24.806 78.8532C24.806 78.9272 24.7829 78.9993 24.7399 79.0596C24.6969 79.1198 24.6362 79.1652 24.5662 79.1893C24.3854 79.2807 24.1855 79.3284 23.9829 79.3284C23.7802 79.3284 23.5804 79.2807 23.3995 79.1893C23.3295 79.1652 23.2689 79.1198 23.2259 79.0596C23.1829 78.9993 23.1598 78.9272 23.1598 78.8532C23.1598 78.7791 23.1829 78.707 23.2259 78.6467C23.2689 78.5865 23.3295 78.5411 23.3995 78.517C23.5804 78.4256 23.7802 78.3779 23.9829 78.3779C24.1855 78.3779 24.3854 78.4256 24.5662 78.517Z" fill="white"/>
<path d="M30.8104 74.9101C30.8803 74.9342 30.941 74.9796 30.984 75.0398C31.027 75.1001 31.0501 75.1722 31.0501 75.2462C31.0501 75.3202 31.027 75.3924 30.984 75.4527C30.941 75.5129 30.8803 75.5582 30.8104 75.5824C30.6295 75.6738 30.4297 75.7215 30.227 75.7215C30.0243 75.7215 29.8245 75.6738 29.6436 75.5824C29.5737 75.5582 29.513 75.5129 29.47 75.4527C29.427 75.3924 29.4039 75.3202 29.4039 75.2462C29.4039 75.1722 29.427 75.1001 29.47 75.0398C29.513 74.9796 29.5737 74.9342 29.6436 74.9101C29.8245 74.8187 30.0243 74.771 30.227 74.771C30.4297 74.771 30.6295 74.8187 30.8104 74.9101Z" fill="white"/>
<path d="M37.0545 71.3066C37.1244 71.3307 37.1852 71.376 37.2281 71.4363C37.2711 71.4965 37.2942 71.5687 37.2942 71.6427C37.2942 71.7167 37.2711 71.7889 37.2281 71.8491C37.1852 71.9094 37.1244 71.9547 37.0545 71.9788C36.8736 72.0703 36.6738 72.1179 36.4711 72.1179C36.2684 72.1179 36.0686 72.0703 35.8878 71.9788C35.8178 71.9547 35.7571 71.9094 35.7141 71.8491C35.6711 71.7889 35.648 71.7167 35.648 71.6427C35.648 71.5687 35.6711 71.4965 35.7141 71.4363C35.7571 71.376 35.8178 71.3307 35.8878 71.3066C36.0686 71.2151 36.2684 71.1675 36.4711 71.1675C36.6738 71.1675 36.8736 71.2151 37.0545 71.3066Z" fill="white"/>
<path d="M43.2986 67.6997C43.3682 67.7246 43.4284 67.7704 43.471 67.8309C43.5135 67.8913 43.5364 67.9635 43.5364 68.0374C43.5364 68.1113 43.5135 68.1835 43.471 68.2439C43.4284 68.3044 43.3682 68.3502 43.2986 68.3751C43.1177 68.4666 42.9179 68.5142 42.7152 68.5142C42.5126 68.5142 42.3127 68.4666 42.1319 68.3751C42.0623 68.3502 42.002 68.3044 41.9595 68.2439C41.9169 68.1835 41.8941 68.1113 41.8941 68.0374C41.8941 67.9635 41.9169 67.8913 41.9595 67.8309C42.002 67.7704 42.0623 67.7246 42.1319 67.6997C42.3127 67.6082 42.5126 67.5605 42.7152 67.5605C42.9179 67.5605 43.1177 67.6082 43.2986 67.6997Z" fill="white"/>
<path d="M30.8104 82.1206C30.8803 82.1447 30.941 82.19 30.984 82.2503C31.027 82.3105 31.0501 82.3827 31.0501 82.4567C31.0501 82.5307 31.027 82.6029 30.984 82.6631C30.941 82.7234 30.8803 82.7687 30.8104 82.7928C30.6295 82.8843 30.4297 82.9319 30.227 82.9319C30.0243 82.9319 29.8245 82.8843 29.6436 82.7928C29.5737 82.7687 29.513 82.7234 29.47 82.6631C29.427 82.6029 29.4039 82.5307 29.4039 82.4567C29.4039 82.3827 29.427 82.3105 29.47 82.2503C29.513 82.19 29.5737 82.1447 29.6436 82.1206C29.8245 82.0291 30.0243 81.9814 30.227 81.9814C30.4297 81.9814 30.6295 82.0291 30.8104 82.1206Z" fill="white"/>
<path d="M37.0545 78.517C37.1244 78.5411 37.1852 78.5865 37.2281 78.6467C37.2711 78.707 37.2942 78.7791 37.2942 78.8532C37.2942 78.9272 37.2711 78.9993 37.2281 79.0596C37.1852 79.1198 37.1244 79.1652 37.0545 79.1893C36.8736 79.2807 36.6738 79.3284 36.4711 79.3284C36.2684 79.3284 36.0686 79.2807 35.8878 79.1893C35.8178 79.1652 35.7571 79.1198 35.7141 79.0596C35.6711 78.9993 35.648 78.9272 35.648 78.8532C35.648 78.7791 35.6711 78.707 35.7141 78.6467C35.7571 78.5865 35.8178 78.5411 35.8878 78.517C36.0686 78.4256 36.2684 78.3779 36.4711 78.3779C36.6738 78.3779 36.8736 78.4256 37.0545 78.517Z" fill="white"/>
<path d="M43.2986 74.9101C43.3686 74.9342 43.4293 74.9796 43.4722 75.0398C43.5152 75.1001 43.5383 75.1722 43.5383 75.2462C43.5383 75.3202 43.5152 75.3924 43.4722 75.4527C43.4293 75.5129 43.3686 75.5582 43.2986 75.5824C43.1177 75.6738 42.9179 75.7215 42.7152 75.7215C42.5126 75.7215 42.3127 75.6738 42.1319 75.5824C42.0619 75.5582 42.0012 75.5129 41.9582 75.4527C41.9152 75.3924 41.8922 75.3202 41.8922 75.2462C41.8922 75.1722 41.9152 75.1001 41.9582 75.0398C42.0012 74.9796 42.0619 74.9342 42.1319 74.9101C42.3127 74.8187 42.5126 74.771 42.7152 74.771C42.9179 74.771 43.1177 74.8187 43.2986 74.9101Z" fill="white"/>
<path d="M49.5427 71.3066C49.6127 71.3307 49.6734 71.376 49.7164 71.4363C49.7593 71.4965 49.7824 71.5687 49.7824 71.6427C49.7824 71.7167 49.7593 71.7889 49.7164 71.8491C49.6734 71.9094 49.6127 71.9547 49.5427 71.9788C49.3619 72.0703 49.162 72.1179 48.9594 72.1179C48.7567 72.1179 48.5569 72.0703 48.376 71.9788C48.306 71.9547 48.2453 71.9094 48.2024 71.8491C48.1594 71.7889 48.1363 71.7167 48.1363 71.6427C48.1363 71.5687 48.1594 71.4965 48.2024 71.4363C48.2453 71.376 48.306 71.3307 48.376 71.3066C48.5569 71.2151 48.7567 71.1675 48.9594 71.1675C49.162 71.1675 49.3619 71.2151 49.5427 71.3066Z" fill="white"/>
<path d="M37.0545 85.7275C37.1244 85.7516 37.1852 85.7969 37.2281 85.8572C37.2711 85.9174 37.2942 85.9896 37.2942 86.0636C37.2942 86.1376 37.2711 86.2098 37.2281 86.27C37.1852 86.3303 37.1244 86.3756 37.0545 86.3997C36.8736 86.4912 36.6738 86.5388 36.4711 86.5388C36.2684 86.5388 36.0686 86.4912 35.8878 86.3997C35.8178 86.3756 35.7571 86.3303 35.7141 86.27C35.6711 86.2098 35.648 86.1376 35.648 86.0636C35.648 85.9896 35.6711 85.9174 35.7141 85.8572C35.7571 85.7969 35.8178 85.7516 35.8878 85.7275C36.0686 85.636 36.2684 85.5884 36.4711 85.5884C36.6738 85.5884 36.8736 85.636 37.0545 85.7275Z" fill="white"/>
<path d="M43.2986 82.1206C43.3686 82.1447 43.4293 82.19 43.4722 82.2503C43.5152 82.3105 43.5383 82.3827 43.5383 82.4567C43.5383 82.5307 43.5152 82.6029 43.4722 82.6631C43.4293 82.7234 43.3686 82.7687 43.2986 82.7928C43.1177 82.8843 42.9179 82.9319 42.7152 82.9319C42.5126 82.9319 42.3127 82.8843 42.1319 82.7928C42.0619 82.7687 42.0012 82.7234 41.9582 82.6631C41.9152 82.6029 41.8922 82.5307 41.8922 82.4567C41.8922 82.3827 41.9152 82.3105 41.9582 82.2503C42.0012 82.19 42.0619 82.1447 42.1319 82.1206C42.3127 82.0291 42.5126 81.9814 42.7152 81.9814C42.9179 81.9814 43.1177 82.0291 43.2986 82.1206Z" fill="white"/>
<path d="M49.5427 78.517C49.6127 78.5411 49.6734 78.5865 49.7164 78.6467C49.7593 78.707 49.7824 78.7791 49.7824 78.8532C49.7824 78.9272 49.7593 78.9993 49.7164 79.0596C49.6734 79.1198 49.6127 79.1652 49.5427 79.1893C49.3619 79.2807 49.162 79.3284 48.9594 79.3284C48.7567 79.3284 48.5569 79.2807 48.376 79.1893C48.306 79.1652 48.2453 79.1198 48.2024 79.0596C48.1594 78.9993 48.1363 78.9272 48.1363 78.8532C48.1363 78.7791 48.1594 78.707 48.2024 78.6467C48.2453 78.5865 48.306 78.5411 48.376 78.517C48.5569 78.4256 48.7567 78.3779 48.9594 78.3779C49.162 78.3779 49.3619 78.4256 49.5427 78.517Z" fill="white"/>
<path d="M55.7868 74.9101C55.8568 74.9342 55.9175 74.9796 55.9604 75.0398C56.0034 75.1001 56.0265 75.1722 56.0265 75.2462C56.0265 75.3202 56.0034 75.3924 55.9604 75.4527C55.9175 75.5129 55.8568 75.5582 55.7868 75.5824C55.6059 75.6738 55.4061 75.7215 55.2034 75.7215C55.0008 75.7215 54.8009 75.6738 54.6201 75.5824C54.5501 75.5582 54.4894 75.5129 54.4464 75.4527C54.4035 75.3924 54.3804 75.3202 54.3804 75.2462C54.3804 75.1722 54.4035 75.1001 54.4464 75.0398C54.4894 74.9796 54.5501 74.9342 54.6201 74.9101C54.8009 74.8187 55.0008 74.771 55.2034 74.771C55.4061 74.771 55.6059 74.8187 55.7868 74.9101Z" fill="white"/>
<path d="M43.2986 89.331C43.3686 89.3551 43.4293 89.4004 43.4722 89.4607C43.5152 89.5209 43.5383 89.5931 43.5383 89.6671C43.5383 89.7411 43.5152 89.8133 43.4722 89.8735C43.4293 89.9338 43.3686 89.9791 43.2986 90.0032C43.1177 90.0947 42.9179 90.1423 42.7152 90.1423C42.5126 90.1423 42.3127 90.0947 42.1319 90.0032C42.0619 89.9791 42.0012 89.9338 41.9582 89.8735C41.9152 89.8133 41.8922 89.7411 41.8922 89.6671C41.8922 89.5931 41.9152 89.5209 41.9582 89.4607C42.0012 89.4004 42.0619 89.3551 42.1319 89.331C42.3127 89.2395 42.5126 89.1919 42.7152 89.1919C42.9179 89.1919 43.1177 89.2395 43.2986 89.331Z" fill="white"/>
<path d="M49.5427 85.7275C49.6127 85.7516 49.6734 85.7969 49.7164 85.8572C49.7593 85.9174 49.7824 85.9896 49.7824 86.0636C49.7824 86.1376 49.7593 86.2098 49.7164 86.27C49.6734 86.3303 49.6127 86.3756 49.5427 86.3997C49.3619 86.4912 49.162 86.5388 48.9594 86.5388C48.7567 86.5388 48.5569 86.4912 48.376 86.3997C48.306 86.3756 48.2453 86.3303 48.2024 86.27C48.1594 86.2098 48.1363 86.1376 48.1363 86.0636C48.1363 85.9896 48.1594 85.9174 48.2024 85.8572C48.2453 85.7969 48.306 85.7516 48.376 85.7275C48.5569 85.636 48.7567 85.5884 48.9594 85.5884C49.162 85.5884 49.3619 85.636 49.5427 85.7275Z" fill="white"/>
<path d="M55.7868 82.1206C55.8568 82.1447 55.9175 82.19 55.9604 82.2503C56.0034 82.3105 56.0265 82.3827 56.0265 82.4567C56.0265 82.5307 56.0034 82.6029 55.9604 82.6631C55.9175 82.7234 55.8568 82.7687 55.7868 82.7928C55.6059 82.8843 55.4061 82.9319 55.2034 82.9319C55.0008 82.9319 54.8009 82.8843 54.6201 82.7928C54.5501 82.7687 54.4894 82.7234 54.4464 82.6631C54.4035 82.6029 54.3804 82.5307 54.3804 82.4567C54.3804 82.3827 54.4035 82.3105 54.4464 82.2503C54.4894 82.19 54.5501 82.1447 54.6201 82.1206C54.8009 82.0291 55.0008 81.9814 55.2034 81.9814C55.4061 81.9814 55.6059 82.0291 55.7868 82.1206Z" fill="white"/>
<path d="M62.031 78.517C62.1009 78.5411 62.1616 78.5865 62.2046 78.6467C62.2475 78.707 62.2706 78.7791 62.2706 78.8532C62.2706 78.9272 62.2475 78.9993 62.2046 79.0596C62.1616 79.1198 62.1009 79.1652 62.031 79.1893C61.8501 79.2807 61.6502 79.3284 61.4476 79.3284C61.2449 79.3284 61.0451 79.2807 60.8642 79.1893C60.7942 79.1652 60.7335 79.1198 60.6906 79.0596C60.6476 78.9993 60.6245 78.9272 60.6245 78.8532C60.6245 78.7791 60.6476 78.707 60.6906 78.6467C60.7335 78.5865 60.7942 78.5411 60.8642 78.517C61.0451 78.4256 61.2449 78.3779 61.4476 78.3779C61.6502 78.3779 61.8501 78.4256 62.031 78.517Z" fill="white"/>
<path d="M49.5427 92.9379C49.6127 92.962 49.6734 93.0074 49.7164 93.0677C49.7593 93.1279 49.7824 93.2001 49.7824 93.2741C49.7824 93.3481 49.7593 93.4202 49.7164 93.4805C49.6734 93.5407 49.6127 93.5861 49.5427 93.6102C49.3619 93.7017 49.162 93.7493 48.9594 93.7493C48.7567 93.7493 48.5569 93.7017 48.376 93.6102C48.306 93.5861 48.2453 93.5407 48.2024 93.4805C48.1594 93.4202 48.1363 93.3481 48.1363 93.2741C48.1363 93.2001 48.1594 93.1279 48.2024 93.0677C48.2453 93.0074 48.306 92.962 48.376 92.9379C48.5569 92.8465 48.7567 92.7988 48.9594 92.7988C49.162 92.7988 49.3619 92.8465 49.5427 92.9379Z" fill="white"/>
<path d="M55.7868 89.331C55.8568 89.3551 55.9175 89.4004 55.9604 89.4607C56.0034 89.5209 56.0265 89.5931 56.0265 89.6671C56.0265 89.7411 56.0034 89.8133 55.9604 89.8735C55.9175 89.9338 55.8568 89.9791 55.7868 90.0032C55.6059 90.0947 55.4061 90.1423 55.2034 90.1423C55.0008 90.1423 54.8009 90.0947 54.6201 90.0032C54.5501 89.9791 54.4894 89.9338 54.4464 89.8735C54.4035 89.8133 54.3804 89.7411 54.3804 89.6671C54.3804 89.5931 54.4035 89.5209 54.4464 89.4607C54.4894 89.4004 54.5501 89.3551 54.6201 89.331C54.8009 89.2395 55.0008 89.1919 55.2034 89.1919C55.4061 89.1919 55.6059 89.2395 55.7868 89.331Z" fill="white"/>
<path d="M62.031 85.7275C62.1009 85.7516 62.1616 85.7969 62.2046 85.8572C62.2475 85.9174 62.2706 85.9896 62.2706 86.0636C62.2706 86.1376 62.2475 86.2098 62.2046 86.27C62.1616 86.3303 62.1009 86.3756 62.031 86.3997C61.8501 86.4912 61.6502 86.5388 61.4476 86.5388C61.2449 86.5388 61.0451 86.4912 60.8642 86.3997C60.7942 86.3756 60.7335 86.3303 60.6906 86.27C60.6476 86.2098 60.6245 86.1376 60.6245 86.0636C60.6245 85.9896 60.6476 85.9174 60.6906 85.8572C60.7335 85.7969 60.7942 85.7516 60.8642 85.7275C61.0451 85.636 61.2449 85.5884 61.4476 85.5884C61.6502 85.5884 61.8501 85.636 62.031 85.7275Z" fill="white"/>
<path d="M68.275 82.1206C68.345 82.1447 68.4057 82.19 68.4487 82.2503C68.4916 82.3105 68.5147 82.3827 68.5147 82.4567C68.5147 82.5307 68.4916 82.6029 68.4487 82.6631C68.4057 82.7234 68.345 82.7687 68.275 82.7928C68.0941 82.8843 67.8943 82.9319 67.6916 82.9319C67.489 82.9319 67.2891 82.8843 67.1083 82.7928C67.0383 82.7687 66.9776 82.7234 66.9347 82.6631C66.8917 82.6029 66.8686 82.5307 66.8686 82.4567C66.8686 82.3827 66.8917 82.3105 66.9347 82.2503C66.9776 82.19 67.0383 82.1447 67.1083 82.1206C67.2891 82.0291 67.489 81.9814 67.6916 81.9814C67.8943 81.9814 68.0941 82.0291 68.275 82.1206Z" fill="white"/>
<path d="M68.275 82.1206C68.345 82.1447 68.4057 82.19 68.4487 82.2503C68.4916 82.3105 68.5147 82.3827 68.5147 82.4567C68.5147 82.5307 68.4916 82.6029 68.4487 82.6631C68.4057 82.7234 68.345 82.7687 68.275 82.7928C68.0941 82.8843 67.8943 82.9319 67.6916 82.9319C67.489 82.9319 67.2891 82.8843 67.1083 82.7928C67.0383 82.7687 66.9776 82.7234 66.9347 82.6631C66.8917 82.6029 66.8686 82.5307 66.8686 82.4567C66.8686 82.3827 66.8917 82.3105 66.9347 82.2503C66.9776 82.19 67.0383 82.1447 67.1083 82.1206C67.2891 82.0291 67.489 81.9814 67.6916 81.9814C67.8943 81.9814 68.0941 82.0291 68.275 82.1206Z" fill="white"/>
<path d="M49.5427 64.0961C49.6127 64.1202 49.6734 64.1656 49.7164 64.2258C49.7593 64.2861 49.7824 64.3583 49.7824 64.4323C49.7824 64.5063 49.7593 64.5784 49.7164 64.6387C49.6734 64.6989 49.6127 64.7443 49.5427 64.7684C49.3619 64.8598 49.162 64.9075 48.9594 64.9075C48.7567 64.9075 48.5569 64.8598 48.376 64.7684C48.306 64.7443 48.2453 64.6989 48.2024 64.6387C48.1594 64.5784 48.1363 64.5063 48.1363 64.4323C48.1363 64.3583 48.1594 64.2861 48.2024 64.2258C48.2453 64.1656 48.306 64.1202 48.376 64.0961C48.5569 64.0047 48.7567 63.957 48.9594 63.957C49.162 63.957 49.3619 64.0047 49.5427 64.0961Z" fill="white"/>
<path d="M55.7868 60.4892C55.8564 60.5141 55.9166 60.56 55.9592 60.6204C56.0018 60.6809 56.0246 60.753 56.0246 60.8269C56.0246 60.9009 56.0018 60.973 55.9592 61.0335C55.9166 61.0939 55.8564 61.1397 55.7868 61.1647C55.606 61.2561 55.4061 61.3038 55.2035 61.3038C55.0008 61.3038 54.8009 61.2561 54.6201 61.1647C54.5505 61.1397 54.4903 61.0939 54.4477 61.0335C54.4051 60.973 54.3823 60.9009 54.3823 60.8269C54.3823 60.753 54.4051 60.6809 54.4477 60.6204C54.4903 60.56 54.5505 60.5141 54.6201 60.4892C54.8009 60.3978 55.0008 60.3501 55.2035 60.3501C55.4061 60.3501 55.606 60.3978 55.7868 60.4892Z" fill="white"/>
<path d="M62.031 56.8857C62.1009 56.9098 62.1616 56.9551 62.2046 57.0154C62.2475 57.0756 62.2706 57.1478 62.2706 57.2218C62.2706 57.2958 62.2475 57.368 62.2046 57.4282C62.1616 57.4885 62.1009 57.5338 62.031 57.5579C61.8501 57.6494 61.6502 57.697 61.4476 57.697C61.2449 57.697 61.0451 57.6494 60.8642 57.5579C60.7942 57.5338 60.7335 57.4885 60.6906 57.4282C60.6476 57.368 60.6245 57.2958 60.6245 57.2218C60.6245 57.1478 60.6476 57.0756 60.6906 57.0154C60.7335 56.9551 60.7942 56.9098 60.8642 56.8857C61.0451 56.7942 61.2449 56.7466 61.4476 56.7466C61.6502 56.7466 61.8501 56.7942 62.031 56.8857Z" fill="white"/>
<path d="M55.7868 67.6997C55.8564 67.7246 55.9166 67.7704 55.9592 67.8309C56.0018 67.8913 56.0246 67.9635 56.0246 68.0374C56.0246 68.1113 56.0018 68.1835 55.9592 68.2439C55.9166 68.3044 55.8564 68.3502 55.7868 68.3751C55.606 68.4666 55.4061 68.5142 55.2035 68.5142C55.0008 68.5142 54.8009 68.4666 54.6201 68.3751C54.5505 68.3502 54.4903 68.3044 54.4477 68.2439C54.4051 68.1835 54.3823 68.1113 54.3823 68.0374C54.3823 67.9635 54.4051 67.8913 54.4477 67.8309C54.4903 67.7704 54.5505 67.7246 54.6201 67.6997C54.8009 67.6082 55.0008 67.5605 55.2035 67.5605C55.4061 67.5605 55.606 67.6082 55.7868 67.6997Z" fill="white"/>
<path d="M62.031 64.0961C62.1009 64.1202 62.1616 64.1656 62.2046 64.2258C62.2475 64.2861 62.2706 64.3583 62.2706 64.4323C62.2706 64.5063 62.2475 64.5784 62.2046 64.6387C62.1616 64.6989 62.1009 64.7443 62.031 64.7684C61.8501 64.8598 61.6502 64.9075 61.4476 64.9075C61.2449 64.9075 61.0451 64.8598 60.8642 64.7684C60.7942 64.7443 60.7335 64.6989 60.6906 64.6387C60.6476 64.5784 60.6245 64.5063 60.6245 64.4323C60.6245 64.3583 60.6476 64.2861 60.6906 64.2258C60.7335 64.1656 60.7942 64.1202 60.8642 64.0961C61.0451 64.0047 61.2449 63.957 61.4476 63.957C61.6502 63.957 61.8501 64.0047 62.031 64.0961Z" fill="white"/>
<path d="M68.2751 60.4892C68.3462 60.5126 68.4081 60.5578 68.452 60.6185C68.4959 60.6791 68.5196 60.7521 68.5196 60.8269C68.5196 60.9018 68.4959 60.9748 68.452 61.0354C68.4081 61.0961 68.3462 61.1413 68.2751 61.1647C68.0942 61.2561 67.8944 61.3038 67.6917 61.3038C67.489 61.3038 67.2892 61.2561 67.1083 61.1647C67.0387 61.1397 66.9785 61.0939 66.936 61.0335C66.8934 60.973 66.8705 60.9009 66.8705 60.8269C66.8705 60.753 66.8934 60.6809 66.936 60.6204C66.9785 60.56 67.0387 60.5141 67.1083 60.4892C67.2892 60.3978 67.489 60.3501 67.6917 60.3501C67.8944 60.3501 68.0942 60.3978 68.2751 60.4892Z" fill="white"/>
<path d="M62.031 71.3066C62.1009 71.3307 62.1616 71.376 62.2046 71.4363C62.2475 71.4965 62.2706 71.5687 62.2706 71.6427C62.2706 71.7167 62.2475 71.7889 62.2046 71.8491C62.1616 71.9094 62.1009 71.9547 62.031 71.9788C61.8501 72.0703 61.6502 72.1179 61.4476 72.1179C61.2449 72.1179 61.0451 72.0703 60.8642 71.9788C60.7942 71.9547 60.7335 71.9094 60.6906 71.8491C60.6476 71.7889 60.6245 71.7167 60.6245 71.6427C60.6245 71.5687 60.6476 71.4965 60.6906 71.4363C60.7335 71.376 60.7942 71.3307 60.8642 71.3066C61.0451 71.2151 61.2449 71.1675 61.4476 71.1675C61.6502 71.1675 61.8501 71.2151 62.031 71.3066Z" fill="white"/>
<path d="M68.2751 67.6997C68.3462 67.723 68.4081 67.7683 68.452 67.8289C68.4959 67.8896 68.5196 67.9625 68.5196 68.0374C68.5196 68.1123 68.4959 68.1852 68.452 68.2459C68.4081 68.3065 68.3462 68.3517 68.2751 68.3751C68.0942 68.4666 67.8944 68.5142 67.6917 68.5142C67.489 68.5142 67.2892 68.4666 67.1083 68.3751C67.0387 68.3502 66.9785 68.3044 66.936 68.2439C66.8934 68.1835 66.8705 68.1113 66.8705 68.0374C66.8705 67.9635 66.8934 67.8913 66.936 67.8309C66.9785 67.7704 67.0387 67.7246 67.1083 67.6997C67.2892 67.6082 67.489 67.5605 67.6917 67.5605C67.8944 67.5605 68.0942 67.6082 68.2751 67.6997Z" fill="white"/>
<path d="M74.5062 64.0961C74.5762 64.1202 74.6369 64.1656 74.6798 64.2258C74.7228 64.2861 74.7459 64.3583 74.7459 64.4323C74.7459 64.5063 74.7228 64.5784 74.6798 64.6387C74.6369 64.6989 74.5762 64.7443 74.5062 64.7684C74.3253 64.8598 74.1255 64.9075 73.9228 64.9075C73.7202 64.9075 73.5203 64.8598 73.3395 64.7684C73.2695 64.7443 73.2088 64.6989 73.1658 64.6387C73.1229 64.5784 73.0998 64.5063 73.0998 64.4323C73.0998 64.3583 73.1229 64.2861 73.1658 64.2258C73.2088 64.1656 73.2695 64.1202 73.3395 64.0961C73.5203 64.0047 73.7202 63.957 73.9228 63.957C74.1255 63.957 74.3253 64.0047 74.5062 64.0961Z" fill="white"/>
<path d="M68.275 74.9101C68.345 74.9342 68.4057 74.9796 68.4487 75.0398C68.4916 75.1001 68.5147 75.1722 68.5147 75.2462C68.5147 75.3202 68.4916 75.3924 68.4487 75.4527C68.4057 75.5129 68.345 75.5582 68.275 75.5824C68.0941 75.6738 67.8943 75.7215 67.6916 75.7215C67.489 75.7215 67.2891 75.6738 67.1083 75.5824C67.0383 75.5582 66.9776 75.5129 66.9347 75.4527C66.8917 75.3924 66.8686 75.3202 66.8686 75.2462C66.8686 75.1722 66.8917 75.1001 66.9347 75.0398C66.9776 74.9796 67.0383 74.9342 67.1083 74.9101C67.2891 74.8187 67.489 74.771 67.6916 74.771C67.8943 74.771 68.0941 74.8187 68.275 74.9101Z" fill="white"/>
<path d="M74.5062 71.3066C74.5762 71.3307 74.6369 71.376 74.6798 71.4363C74.7228 71.4965 74.7459 71.5687 74.7459 71.6427C74.7459 71.7167 74.7228 71.7889 74.6798 71.8491C74.6369 71.9094 74.5762 71.9547 74.5062 71.9788C74.3253 72.0703 74.1255 72.1179 73.9228 72.1179C73.7202 72.1179 73.5203 72.0703 73.3395 71.9788C73.2695 71.9547 73.2088 71.9094 73.1658 71.8491C73.1229 71.7889 73.0998 71.7167 73.0998 71.6427C73.0998 71.5687 73.1229 71.4965 73.1658 71.4363C73.2088 71.376 73.2695 71.3307 73.3395 71.3066C73.5203 71.2151 73.7202 71.1675 73.9228 71.1675C74.1255 71.1675 74.3253 71.2151 74.5062 71.3066Z" fill="white"/>
<path d="M80.7632 67.6997C80.8343 67.723 80.8963 67.7683 80.9402 67.8289C80.9841 67.8896 81.0077 67.9625 81.0077 68.0374C81.0077 68.1123 80.9841 68.1852 80.9402 68.2459C80.8963 68.3065 80.8343 68.3517 80.7632 68.3751C80.5823 68.4666 80.3825 68.5142 80.1798 68.5142C79.9772 68.5142 79.7773 68.4666 79.5965 68.3751C79.5269 68.3502 79.4667 68.3044 79.4241 68.2439C79.3816 68.1835 79.3587 68.1113 79.3587 68.0374C79.3587 67.9635 79.3816 67.8913 79.4241 67.8309C79.4667 67.7704 79.5269 67.7246 79.5965 67.6997C79.7773 67.6082 79.9772 67.5605 80.1798 67.5605C80.3825 67.5605 80.5823 67.6082 80.7632 67.6997Z" fill="white"/>
<path d="M74.5062 78.517C74.5762 78.5411 74.6369 78.5865 74.6798 78.6467C74.7228 78.707 74.7459 78.7791 74.7459 78.8532C74.7459 78.9272 74.7228 78.9993 74.6798 79.0596C74.6369 79.1198 74.5762 79.1652 74.5062 79.1893C74.3253 79.2807 74.1255 79.3284 73.9228 79.3284C73.7202 79.3284 73.5203 79.2807 73.3395 79.1893C73.2695 79.1652 73.2088 79.1198 73.1658 79.0596C73.1229 78.9993 73.0998 78.9272 73.0998 78.8532C73.0998 78.7791 73.1229 78.707 73.1658 78.6467C73.2088 78.5865 73.2695 78.5411 73.3395 78.517C73.5203 78.4256 73.7202 78.3779 73.9228 78.3779C74.1255 78.3779 74.3253 78.4256 74.5062 78.517Z" fill="white"/>
<path d="M80.7632 74.9101C80.8343 74.9335 80.8963 74.9787 80.9402 75.0394C80.9841 75.1 81.0077 75.173 81.0077 75.2478C81.0077 75.3227 80.9841 75.3957 80.9402 75.4563C80.8963 75.517 80.8343 75.5622 80.7632 75.5856C80.5823 75.677 80.3825 75.7247 80.1798 75.7247C79.9772 75.7247 79.7773 75.677 79.5965 75.5856C79.5269 75.5607 79.4667 75.5148 79.4241 75.4544C79.3816 75.3939 79.3587 75.3218 79.3587 75.2478C79.3587 75.1739 79.3816 75.1018 79.4241 75.0413C79.4667 74.9809 79.5269 74.935 79.5965 74.9101C79.7773 74.8187 79.9772 74.771 80.1798 74.771C80.3825 74.771 80.5823 74.8187 80.7632 74.9101Z" fill="white"/>
<path d="M87.0074 71.3066C87.0773 71.3307 87.138 71.376 87.181 71.4363C87.224 71.4965 87.2471 71.5687 87.2471 71.6427C87.2471 71.7167 87.224 71.7889 87.181 71.8491C87.138 71.9094 87.0773 71.9547 87.0074 71.9788C86.8265 72.0703 86.6267 72.1179 86.424 72.1179C86.2213 72.1179 86.0215 72.0703 85.8406 71.9788C85.7707 71.9547 85.71 71.9094 85.667 71.8491C85.624 71.7889 85.6009 71.7167 85.6009 71.6427C85.6009 71.5687 85.624 71.4965 85.667 71.4363C85.71 71.376 85.7707 71.3307 85.8406 71.3066C86.0215 71.2151 86.2213 71.1675 86.424 71.1675C86.6267 71.1675 86.8265 71.2151 87.0074 71.3066Z" fill="white"/>
<path d="M55.7868 96.5415C55.8568 96.5656 55.9175 96.6109 55.9604 96.6712C56.0034 96.7314 56.0265 96.8036 56.0265 96.8776C56.0265 96.9516 56.0034 97.0237 55.9604 97.084C55.9175 97.1443 55.8568 97.1896 55.7868 97.2137C55.6059 97.3051 55.4061 97.3528 55.2034 97.3528C55.0008 97.3528 54.8009 97.3051 54.6201 97.2137C54.5501 97.1896 54.4894 97.1443 54.4464 97.084C54.4035 97.0237 54.3804 96.9516 54.3804 96.8776C54.3804 96.8036 54.4035 96.7314 54.4464 96.6712C54.4894 96.6109 54.5501 96.5656 54.6201 96.5415C54.8009 96.45 55.0008 96.4023 55.2034 96.4023C55.4061 96.4023 55.6059 96.45 55.7868 96.5415Z" fill="white"/>
<path d="M62.031 92.9379C62.1009 92.962 62.1616 93.0074 62.2046 93.0677C62.2475 93.1279 62.2706 93.2001 62.2706 93.2741C62.2706 93.3481 62.2475 93.4202 62.2046 93.4805C62.1616 93.5407 62.1009 93.5861 62.031 93.6102C61.8501 93.7017 61.6502 93.7493 61.4476 93.7493C61.2449 93.7493 61.0451 93.7017 60.8642 93.6102C60.7942 93.5861 60.7335 93.5407 60.6906 93.4805C60.6476 93.4202 60.6245 93.3481 60.6245 93.2741C60.6245 93.2001 60.6476 93.1279 60.6906 93.0677C60.7335 93.0074 60.7942 92.962 60.8642 92.9379C61.0451 92.8465 61.2449 92.7988 61.4476 92.7988C61.6502 92.7988 61.8501 92.8465 62.031 92.9379Z" fill="white"/>
<path d="M68.275 89.331C68.345 89.3551 68.4057 89.4004 68.4487 89.4607C68.4916 89.5209 68.5147 89.5931 68.5147 89.6671C68.5147 89.7411 68.4916 89.8133 68.4487 89.8735C68.4057 89.9338 68.345 89.9791 68.275 90.0032C68.0941 90.0947 67.8943 90.1423 67.6916 90.1423C67.489 90.1423 67.2891 90.0947 67.1083 90.0032C67.0383 89.9791 66.9776 89.9338 66.9347 89.8735C66.8917 89.8133 66.8686 89.7411 66.8686 89.6671C66.8686 89.5931 66.8917 89.5209 66.9347 89.4607C66.9776 89.4004 67.0383 89.3551 67.1083 89.331C67.2891 89.2395 67.489 89.1919 67.6916 89.1919C67.8943 89.1919 68.0941 89.2395 68.275 89.331Z" fill="white"/>
<path d="M74.5062 85.7274C74.5762 85.7515 74.6369 85.7969 74.6798 85.8571C74.7228 85.9174 74.7459 85.9895 74.7459 86.0635C74.7459 86.1375 74.7228 86.2097 74.6798 86.27C74.6369 86.3302 74.5762 86.3755 74.5062 86.3996C74.3258 86.4906 74.1265 86.5379 73.9245 86.5379C73.7224 86.5379 73.5232 86.4906 73.3427 86.3996C73.0195 86.2122 73.0195 85.9116 73.3427 85.7274C73.5232 85.6365 73.7224 85.5891 73.9245 85.5891C74.1265 85.5891 74.3258 85.6365 74.5062 85.7274Z" fill="white"/>
<path d="M62.0309 100.139C62.1009 100.163 62.1616 100.208 62.2046 100.268C62.2475 100.329 62.2706 100.401 62.2706 100.475C62.2706 100.549 62.2475 100.621 62.2046 100.681C62.1616 100.741 62.1009 100.787 62.0309 100.811C61.8505 100.902 61.6512 100.949 61.4492 100.949C61.2471 100.949 61.0479 100.902 60.8674 100.811C60.7963 100.788 60.7344 100.742 60.6905 100.682C60.6466 100.621 60.6229 100.548 60.6229 100.473C60.6229 100.398 60.6466 100.325 60.6905 100.265C60.7344 100.204 60.7963 100.159 60.8674 100.135C61.0481 100.045 61.2475 99.9982 61.4496 99.9988C61.6516 99.9993 61.8507 100.047 62.0309 100.139Z" fill="white"/>
<path d="M68.275 96.5414C68.345 96.5655 68.4057 96.6108 68.4487 96.6711C68.4916 96.7313 68.5147 96.8035 68.5147 96.8775C68.5147 96.9515 68.4916 97.0237 68.4487 97.0839C68.4057 97.1442 68.345 97.1895 68.275 97.2136C68.095 97.306 67.8956 97.3543 67.6933 97.3543C67.4909 97.3543 67.2915 97.306 67.1115 97.2136C67.0416 97.1895 66.9809 97.1442 66.9379 97.0839C66.8949 97.0237 66.8718 96.9515 66.8718 96.8775C66.8718 96.8035 66.8949 96.7313 66.9379 96.6711C66.9809 96.6108 67.0416 96.5655 67.1115 96.5414C67.292 96.4504 67.4912 96.4031 67.6933 96.4031C67.8953 96.4031 68.0946 96.4504 68.275 96.5414Z" fill="white"/>
<path d="M74.5062 92.938C74.5762 92.9621 74.6369 93.0075 74.6798 93.0677C74.7228 93.128 74.7459 93.2001 74.7459 93.2741C74.7459 93.3482 74.7228 93.4203 74.6798 93.4806C74.6369 93.5408 74.5762 93.5862 74.5062 93.6103C74.3258 93.7012 74.1265 93.7486 73.9245 93.7486C73.7224 93.7486 73.5232 93.7012 73.3427 93.6103C73.2727 93.5862 73.212 93.5408 73.1691 93.4806C73.1261 93.4203 73.103 93.3482 73.103 93.2741C73.103 93.2001 73.1261 93.128 73.1691 93.0677C73.212 93.0075 73.2727 92.9621 73.3427 92.938C73.5227 92.8456 73.7221 92.7974 73.9245 92.7974C74.1268 92.7974 74.3262 92.8456 74.5062 92.938Z" fill="white"/>
<path d="M80.7633 89.3309C80.8332 89.3551 80.8939 89.4004 80.9369 89.4606C80.9799 89.5209 81.003 89.593 81.003 89.667C81.003 89.741 80.9799 89.8132 80.9369 89.8735C80.8939 89.9337 80.8332 89.9791 80.7633 90.0032C80.5833 90.0956 80.3838 90.1438 80.1815 90.1438C79.9792 90.1438 79.7797 90.0956 79.5998 90.0032C79.5298 89.9791 79.4691 89.9337 79.4261 89.8735C79.3831 89.8132 79.36 89.741 79.36 89.667C79.36 89.593 79.3831 89.5209 79.4261 89.4606C79.4691 89.4004 79.5298 89.3551 79.5998 89.3309C79.7802 89.24 79.9794 89.1926 80.1815 89.1926C80.3836 89.1926 80.5828 89.24 80.7633 89.3309Z" fill="white"/>
<path d="M80.7633 82.1205C80.8332 82.1446 80.8939 82.1899 80.9369 82.2502C80.9799 82.3104 81.003 82.3826 81.003 82.4566C81.003 82.5306 80.9799 82.6028 80.9369 82.663C80.8939 82.7233 80.8332 82.7686 80.7633 82.7927C80.5833 82.8851 80.3838 82.9334 80.1815 82.9334C79.9792 82.9334 79.7797 82.8851 79.5998 82.7927C79.5298 82.7686 79.4691 82.7233 79.4261 82.663C79.3831 82.6028 79.36 82.5306 79.36 82.4566C79.36 82.3826 79.3831 82.3104 79.4261 82.2502C79.4691 82.1899 79.5298 82.1446 79.5998 82.1205C79.7802 82.0295 79.9794 81.9822 80.1815 81.9822C80.3836 81.9822 80.5828 82.0295 80.7633 82.1205Z" fill="white"/>
<path d="M87.0074 78.5169C87.0773 78.541 87.138 78.5863 87.181 78.6466C87.224 78.7068 87.2471 78.779 87.2471 78.853C87.2471 78.927 87.224 78.9992 87.181 79.0594C87.138 79.1197 87.0773 79.165 87.0074 79.1891C86.8274 79.2816 86.628 79.3298 86.4256 79.3298C86.2233 79.3298 86.0239 79.2816 85.8439 79.1891C85.7739 79.165 85.7132 79.1197 85.6702 79.0594C85.6273 78.9992 85.6042 78.927 85.6042 78.853C85.6042 78.779 85.6273 78.7068 85.6702 78.6466C85.7132 78.5863 85.7739 78.541 85.8439 78.5169C86.0239 78.4244 86.2233 78.3762 86.4256 78.3762C86.628 78.3762 86.8274 78.4244 87.0074 78.5169Z" fill="white"/>
<path d="M93.2515 74.91C93.3226 74.9334 93.3845 74.9786 93.4284 75.0393C93.4723 75.0999 93.496 75.1729 93.496 75.2478C93.496 75.3226 93.4723 75.3956 93.4284 75.4562C93.3845 75.5169 93.3226 75.5621 93.2515 75.5855C93.071 75.6764 92.8718 75.7238 92.6697 75.7238C92.4677 75.7238 92.2684 75.6764 92.088 75.5855C92.0169 75.5621 91.9549 75.5169 91.911 75.4562C91.8671 75.3956 91.8435 75.3226 91.8435 75.2478C91.8435 75.1729 91.8671 75.0999 91.911 75.0393C91.9549 74.9786 92.0169 74.9334 92.088 74.91C92.2684 74.8191 92.4677 74.7717 92.6697 74.7717C92.8718 74.7717 93.071 74.8191 93.2515 74.91Z" fill="white"/>
<path d="M87.0074 85.7273C87.0773 85.7514 87.138 85.7968 87.181 85.857C87.224 85.9173 87.2471 85.9894 87.2471 86.0635C87.2471 86.1375 87.224 86.2096 87.181 86.2699C87.138 86.3301 87.0773 86.3755 87.0074 86.3996C86.8269 86.4905 86.6277 86.5378 86.4256 86.5378C86.2236 86.5378 86.0243 86.4905 85.8439 86.3996C85.7739 86.3755 85.7132 86.3301 85.6702 86.2699C85.6273 86.2096 85.6042 86.1375 85.6042 86.0635C85.6042 85.9894 85.6273 85.9173 85.6702 85.857C85.7132 85.7968 85.7739 85.7514 85.8439 85.7273C86.0239 85.6349 86.2233 85.5867 86.4256 85.5867C86.628 85.5867 86.8274 85.6349 87.0074 85.7273Z" fill="white"/>
<path d="M93.2514 82.1205C93.3214 82.1446 93.3821 82.1899 93.4251 82.2502C93.468 82.3104 93.4912 82.3826 93.4912 82.4566C93.4912 82.5306 93.468 82.6028 93.4251 82.663C93.3821 82.7233 93.3214 82.7686 93.2514 82.7927C93.0715 82.8851 92.872 82.9334 92.6697 82.9334C92.4674 82.9334 92.2679 82.8851 92.0879 82.7927C92.018 82.7686 91.9573 82.7233 91.9143 82.663C91.8713 82.6028 91.8482 82.5306 91.8482 82.4566C91.8482 82.3826 91.8713 82.3104 91.9143 82.2502C91.9573 82.1899 92.018 82.1446 92.0879 82.1205C92.2684 82.0295 92.4676 81.9822 92.6697 81.9822C92.8718 81.9822 93.071 82.0295 93.2514 82.1205Z" fill="white"/>
<path d="M99.4956 78.5169C99.5655 78.541 99.6262 78.5863 99.6692 78.6466C99.7122 78.7068 99.7353 78.779 99.7353 78.853C99.7353 78.927 99.7122 78.9992 99.6692 79.0594C99.6262 79.1197 99.5655 79.165 99.4956 79.1891C99.3156 79.2816 99.1162 79.3298 98.9138 79.3298C98.7115 79.3298 98.5121 79.2816 98.3321 79.1891C98.2621 79.165 98.2014 79.1197 98.1584 79.0594C98.1155 78.9992 98.0924 78.927 98.0924 78.853C98.0924 78.779 98.1155 78.7068 98.1584 78.6466C98.2014 78.5863 98.2621 78.541 98.3321 78.5169C98.5121 78.4244 98.7115 78.3762 98.9138 78.3762C99.1162 78.3762 99.3156 78.4244 99.4956 78.5169Z" fill="white"/>
</g>
<path opacity="0.8" d="M99.069 35.5711V84.3217C99.0691 84.6531 98.982 84.9787 98.8164 85.2657C98.6508 85.5527 98.4125 85.7911 98.1256 85.9569C97.8386 86.1226 97.5131 86.2099 97.1817 86.2099C96.8503 86.21 96.5248 86.1227 96.2378 85.9571L45.4188 56.6143C44.4577 56.0602 43.6596 55.2627 43.1048 54.3022C42.5499 53.3416 42.2578 52.2519 42.2579 51.1426V2.39198C42.2571 2.05965 42.3441 1.73299 42.51 1.44505C42.676 1.1571 42.915 0.918069 43.2029 0.752126C43.4909 0.586183 43.8175 0.499217 44.1498 0.500005C44.4822 0.500793 44.8084 0.589317 45.0956 0.756623L95.9211 30.0994C96.8797 30.6551 97.6752 31.4533 98.2277 32.4137C98.7803 33.3742 99.0704 34.463 99.069 35.5711Z" fill="#080078"/>
<rect width="1.83428" height="1.34652" transform="matrix(0.866025 0.5 -2.20305e-08 1 60.1548 47.792)" fill="#FF5A6F"/>
<rect width="1.83428" height="1.34652" transform="matrix(0.866025 0.5 -2.20305e-08 1 60.1548 51.6631)" fill="#FF5A6F"/>
<rect width="1.83428" height="1.34652" transform="matrix(0.866025 0.5 -2.20305e-08 1 60.1548 55.5344)" fill="#FF5A6F"/>
<rect width="10.1508" height="1.34652" transform="matrix(0.866025 0.5 -2.20305e-08 1 63.0168 49.5732)" fill="white"/>
<rect width="10.1508" height="1.34652" transform="matrix(0.866025 0.5 -2.20305e-08 1 63.0168 53.4443)" fill="white"/>
<rect width="10.1508" height="1.34652" transform="matrix(0.866025 0.5 -2.20305e-08 1 63.0168 57.3157)" fill="white"/>
<g clip-path="url(#clip0_101_17756)">
<path fill-rule="evenodd" clip-rule="evenodd" d="M55.6695 44.7345L51.6386 39.1191L51.6792 52.3609L55.7 54.6659L55.6695 44.7345Z" fill="white"/>
<path d="M51.6477 42.0984L47.637 43.1038L47.6583 50.0558" stroke="white" stroke-linecap="round" stroke-linejoin="round"/>
<path d="M57.7104 55.8184L46.2223 49.2326" stroke="white" stroke-linecap="round" stroke-linejoin="round"/>
</g>
<path d="M85.2654 58.812L86.2964 59.4066V58.2173L85.2654 57.6194V58.812Z" fill="white"/>
<path d="M87.9317 60.3502L88.9659 60.9481V59.7556L87.9317 59.1609V60.3502Z" fill="white"/>
<path d="M90.6013 61.892L91.6323 62.4867V61.2973L90.6013 60.7026V61.892Z" fill="#FF5A6F"/>
<path d="M93.2709 63.4336L94.3019 64.0282V62.8389L93.2709 62.241V63.4336Z" fill="#FF5A6F"/>
<path d="M77.2598 57.2573L78.2908 57.852V56.6626L77.2598 56.0647V57.2573Z" fill="white"/>
<path d="M79.9294 58.7958L80.9604 59.3937V58.2011L79.9294 57.6064V58.7958Z" fill="white"/>
<path d="M82.5958 60.3374L83.6267 60.932V59.7427L82.5958 59.1448V60.3374Z" fill="white"/>
<path d="M85.2654 61.8789L86.2964 62.4736V61.281L85.2654 60.6863V61.8789Z" fill="white"/>
<path d="M87.9317 63.4176L88.9659 64.0155V62.8229L87.9317 62.2283V63.4176Z" fill="white"/>
<path d="M90.6013 64.9592L91.6323 65.5539V64.3645L90.6013 63.7666V64.9592Z" fill="#FF5A6F"/>
<path d="M93.2709 66.5007L94.3019 67.0954V65.9028L93.2709 65.3081V66.5007Z" fill="#FF5A6F"/>
<path d="M77.2598 60.3247L78.2908 60.9194V59.7268L77.2598 59.1321V60.3247Z" fill="white"/>
<path d="M79.9294 61.8629L80.9604 62.4576V61.2683L79.9294 60.6736V61.8629Z" fill="white"/>
<path d="M82.5958 63.4045L83.6267 63.9992V62.8098L82.5958 62.2119V63.4045Z" fill="white"/>
<path d="M85.2654 64.9462L86.2964 65.5409V64.3483L85.2654 63.7537V64.9462Z" fill="white"/>
<path d="M87.9317 66.4846L88.9659 67.0793V65.8899L87.9317 65.292V66.4846Z" fill="white"/>
<path d="M90.6013 68.0261L91.6323 68.6207V67.4282L90.6013 66.8335V68.0261Z" fill="#FF5A6F"/>
<path d="M93.2709 69.5646L94.3019 70.1625V68.9699L93.2709 68.3752V69.5646Z" fill="#FF5A6F"/>
<path d="M77.2598 63.3883L78.2908 63.9862V62.7937L77.2598 62.199V63.3883Z" fill="white"/>
<path d="M79.9294 64.9301L80.9604 65.5248V64.3354L79.9294 63.7375V64.9301Z" fill="white"/>
<path d="M82.5958 66.4716L83.6267 67.0663V65.8737L82.5958 65.2791V66.4716Z" fill="white"/>
<path d="M85.2654 68.0102L86.2964 68.6048V67.4155L85.2654 66.8208V68.0102Z" fill="white"/>
<path d="M87.9317 69.5517L88.9659 70.1464V68.9571L87.9317 68.3591V69.5517Z" fill="white"/>
<path d="M90.6013 71.0932L91.6323 71.6879V70.4953L90.6013 69.9006V71.0932Z" fill="#FF5A6F"/>
<path d="M93.2709 72.6317L94.3019 73.2264V72.037L93.2709 71.4424V72.6317Z" fill="#FF5A6F"/>
<path d="M77.2598 66.4555L78.2908 67.0502V65.8608L77.2598 65.2661V66.4555Z" fill="white"/>
<path d="M79.9294 67.997L80.9604 68.5917V67.4024L79.9294 66.8044V67.997Z" fill="white"/>
<path d="M82.5958 69.5355L83.6267 70.1334V68.9409L82.5958 68.3462V69.5355Z" fill="white"/>
<path d="M85.2654 71.0774L86.2964 71.672V70.4827L85.2654 69.8848V71.0774Z" fill="white"/>
<path d="M87.9317 72.6186L88.9659 73.2133V72.0207L87.9317 71.426V72.6186Z" fill="white"/>
<path d="M47.7328 27.3135C47.7207 27.3139 47.7086 27.3119 47.6972 27.3075C47.6859 27.3032 47.6755 27.2966 47.6668 27.2881C47.658 27.2797 47.6511 27.2696 47.6463 27.2584C47.6416 27.2472 47.6391 27.2351 47.6391 27.223V21.134C47.6391 21.1091 47.649 21.0853 47.6666 21.0677C47.6842 21.0501 47.708 21.0403 47.7328 21.0403C47.7571 21.0411 47.7802 21.0514 47.7971 21.0688C47.8139 21.0863 47.8234 21.1097 47.8234 21.134V27.223C47.8234 27.247 47.8138 27.27 47.7968 27.287C47.7799 27.304 47.7568 27.3135 47.7328 27.3135Z" fill="white"/>
<path d="M55.3376 31.7057C55.3136 31.7057 55.2906 31.6961 55.2736 31.6791C55.2566 31.6622 55.2471 31.6392 55.2471 31.6152V16.7062C55.2471 16.6822 55.2566 16.6592 55.2736 16.6422C55.2906 16.6253 55.3136 16.6157 55.3376 16.6157C55.3616 16.6157 55.3846 16.6253 55.4016 16.6422C55.4186 16.6592 55.4281 16.6822 55.4281 16.7062V31.6216C55.4265 31.6445 55.4162 31.6659 55.3994 31.6815C55.3826 31.6971 55.3605 31.7057 55.3376 31.7057Z" fill="white"/>
<path d="M56.5948 34.1909L54.0804 32.7397V33.942L56.5948 35.3932V34.1909Z" fill="white"/>
<path d="M48.8608 29.7246L46.3464 28.2734V29.4757L48.8608 30.9268V29.7246Z" fill="white"/>
<path d="M62.9424 36.0977C62.9181 36.0969 62.895 36.0866 62.8782 36.0691C62.8613 36.0517 62.8519 36.0283 62.8519 36.004V29.915C62.8519 29.8907 62.8613 29.8673 62.8782 29.8499C62.895 29.8324 62.9181 29.8221 62.9424 29.8213C62.9672 29.8213 62.9911 29.8312 63.0086 29.8487C63.0262 29.8663 63.0361 29.8902 63.0361 29.915V36.004C63.0361 36.0289 63.0262 36.0527 63.0086 36.0703C62.9911 36.0879 62.9672 36.0977 62.9424 36.0977Z" fill="white"/>
<path d="M64.1996 38.5801L61.6851 37.1289V38.3344L64.1996 39.7856V38.5801Z" fill="white"/>
<path d="M70.5503 40.461C70.526 40.461 70.5027 40.4516 70.4852 40.4347C70.4677 40.4178 70.4574 40.3948 70.4566 40.3705V25.4616C70.4574 25.4373 70.4677 25.4143 70.4852 25.3974C70.5027 25.3805 70.526 25.3711 70.5503 25.3711C70.5741 25.3719 70.5966 25.3817 70.6134 25.3985C70.6302 25.4153 70.64 25.4379 70.6408 25.4616V40.3705C70.64 40.3943 70.6302 40.4168 70.6134 40.4336C70.5966 40.4504 70.5741 40.4602 70.5503 40.461Z" fill="white"/>
<path d="M71.8076 42.9721L69.2932 41.521V42.7233L71.8076 44.1776V42.9721Z" fill="white"/>
<path d="M78.1551 44.8533C78.1302 44.8533 78.1064 44.8434 78.0888 44.8259C78.0712 44.8083 78.0613 44.7845 78.0613 44.7596V38.6706C78.0613 38.6458 78.0712 38.6219 78.0888 38.6043C78.1064 38.5868 78.1302 38.5769 78.1551 38.5769C78.1794 38.5777 78.2024 38.588 78.2193 38.6055C78.2362 38.623 78.2456 38.6463 78.2456 38.6706V44.7596C78.2456 44.7839 78.2362 44.8073 78.2193 44.8248C78.2024 44.8423 78.1794 44.8525 78.1551 44.8533Z" fill="#C9C9C9"/>
<path d="M79.4123 47.3645L76.8979 45.9133V47.1156L79.4123 48.5668V47.3645Z" fill="white"/>
<path d="M85.7598 49.2423C85.7478 49.2427 85.7359 49.2407 85.7247 49.2363C85.7135 49.2319 85.7033 49.2253 85.6948 49.2168C85.6864 49.2083 85.6797 49.1981 85.6753 49.1869C85.6709 49.1758 85.6689 49.1638 85.6693 49.1518V34.2461C85.6689 34.2339 85.6709 34.2218 85.6753 34.2104C85.6796 34.1991 85.6862 34.1887 85.6947 34.18C85.7031 34.1712 85.7133 34.1643 85.7245 34.1595C85.7357 34.1548 85.7477 34.1523 85.7598 34.1523C85.772 34.1523 85.784 34.1548 85.7952 34.1595C85.8064 34.1643 85.8166 34.1712 85.825 34.18C85.8334 34.1887 85.84 34.1991 85.8444 34.2104C85.8487 34.2218 85.8508 34.2339 85.8503 34.2461V49.1518C85.8508 49.1638 85.8488 49.1758 85.8444 49.1869C85.84 49.1981 85.8333 49.2083 85.8248 49.2168C85.8163 49.2253 85.8062 49.2319 85.795 49.2363C85.7838 49.2407 85.7719 49.2427 85.7598 49.2423Z" fill="white"/>
<path d="M87.0171 51.7534L84.5026 50.3022V51.5078L87.0171 52.9589V51.7534Z" fill="white"/>
<path d="M93.3646 53.6345C93.3408 53.6337 93.3183 53.6239 93.3015 53.6071C93.2847 53.5903 93.2749 53.5677 93.2741 53.544V47.4582C93.2741 47.4342 93.2836 47.4112 93.3006 47.3942C93.3176 47.3773 93.3406 47.3677 93.3646 47.3677C93.3767 47.3673 93.3889 47.3693 93.4002 47.3737C93.4116 47.378 93.4219 47.3846 93.4307 47.3931C93.4394 47.4015 93.4464 47.4117 93.4512 47.4228C93.4559 47.434 93.4583 47.4461 93.4583 47.4582V53.5504C93.4559 53.5736 93.445 53.595 93.4277 53.6105C93.4104 53.6261 93.3879 53.6346 93.3646 53.6345Z" fill="white"/>
<path d="M94.6251 56.1457L92.1074 54.6946V55.8969L94.6251 57.3512V56.1457Z" fill="white"/>
<path d="M46.2171 22.4916C46.1368 22.4392 46.0701 22.3685 46.0223 22.2854C45.9746 22.2022 45.9472 22.109 45.9424 22.0132C45.9424 21.8387 46.062 21.7644 46.2171 21.8516L47.7297 22.721H47.7523C48.7736 23.3125 49.9468 22.4948 51.0812 21.7062C52.4224 20.7754 53.8089 19.8123 55.3344 20.6655L55.3764 20.6881C56.834 21.5317 58.1042 23.5646 59.3355 25.536C60.4893 27.3847 61.6852 29.2948 62.9424 30.022C64.0736 30.6684 65.1143 28.7583 66.1226 26.9064C67.3637 24.6246 68.6468 22.2653 70.5504 23.3512C72.454 24.4372 73.6531 27.5237 74.8553 30.5165C75.9089 33.144 76.9076 35.6294 78.1357 36.334C79.3606 37.0006 80.6633 37.513 82.0141 37.8594C83.3117 38.1963 84.5664 38.681 85.7534 39.3041C87.2046 40.0959 88.3551 41.6473 89.4669 43.1501C90.5787 44.653 91.7681 46.2625 93.3226 47.1577L93.3646 47.1836L96.0536 48.7349C96.1338 48.7877 96.2006 48.8584 96.2489 48.9414C96.2971 49.0244 96.3254 49.1174 96.3316 49.2132C96.3316 49.391 96.2055 49.4621 96.0536 49.3748L93.3646 47.8203L93.3194 47.7944C91.6 46.8022 90.359 45.1248 89.1567 43.4992C88.0707 42.0319 87.043 40.6454 85.7696 39.944C84.6199 39.3396 83.4041 38.87 82.1466 38.5446C80.756 38.1876 79.416 37.6566 78.1584 36.9642H78.1357C76.5941 36.0722 75.5211 33.409 74.3802 30.5617C73.2394 27.7144 72.0985 24.8703 70.5504 23.975C69.0023 23.0798 67.7321 25.3971 66.6203 27.4429C65.5085 29.4887 64.4194 31.486 62.9424 30.6328C61.4654 29.7796 60.2017 27.7467 58.9671 25.7849C57.7325 23.8231 56.6239 22.0391 55.3764 21.3184L55.3409 21.299C54.0481 20.5782 52.7553 21.4832 51.4916 22.3623C50.2279 23.2414 49.0192 24.0784 47.7587 23.3512L47.7264 23.3351L46.2171 22.4689V22.4916Z" fill="url(#paint3_linear_101_17756)"/>
<path d="M70.1043 21.5897L70.4599 22.7952L70.8121 21.9969L71.7171 22.5172V20.4843L69.2026 19.0332V21.0661L70.1043 21.5897Z" fill="#FF5A6F"/>
<path d="M46.3869 70.294L89.0033 95.0733V77.5831L46.3869 52.7949V70.294Z" fill="url(#paint4_linear_101_17756)"/>
<path d="M88.157 88.9039C88.207 88.9041 88.2561 88.8911 88.2995 88.8662C88.3428 88.8413 88.3788 88.8053 88.4038 88.762C88.4233 88.7299 88.4361 88.6942 88.4417 88.657C88.4472 88.6198 88.4453 88.5819 88.436 88.5455C88.4268 88.5091 88.4104 88.4748 88.3878 88.4448C88.3653 88.4147 88.3369 88.3895 88.3045 88.3705L47.3771 64.8991C47.3448 64.8798 47.3089 64.8671 47.2716 64.8617C47.2344 64.8564 47.1964 64.8586 47.1599 64.8681C47.1235 64.8776 47.0893 64.8943 47.0594 64.9171C47.0294 64.94 47.0043 64.9686 46.9856 65.0012C46.9662 65.0336 46.9535 65.0694 46.9482 65.1067C46.9429 65.144 46.9451 65.182 46.9546 65.2184C46.9641 65.2549 46.9807 65.2891 47.0036 65.319C47.0265 65.3489 47.055 65.374 47.0877 65.3928L88.0123 88.8642C88.0561 88.8902 88.1061 88.9039 88.157 88.9039V88.9039Z" fill="#FF5A6F"/>
<path style="mix-blend-mode:multiply" d="M35.1768 79.936C32.0127 79.936 29.4498 81.2741 29.4498 82.9223C29.4498 84.5706 32.0127 85.9054 35.1768 85.9054H64.3095V79.936H35.1768Z" fill="url(#paint5_linear_101_17756)"/>
<path d="M34.107 83.769C34.9667 84.4897 35.1444 84.4154 35.2543 84.9163C35.3642 85.4173 33.9906 85.1167 33.341 84.8743C33.0333 84.7556 32.7585 84.5649 32.5395 84.3184C32.268 83.9661 31.9965 84.1439 31.4859 83.9661C30.9752 83.7884 30.9138 83.2971 31.1368 82.5182C31.3598 81.7393 32.8401 82.5182 33.16 82.7541C33.5007 83.0681 33.8173 83.4074 34.107 83.769Z" fill="#000070"/>
<path d="M34.3041 42.4971C34.7308 41.576 35.1606 42.1739 35.3901 41.0492C35.6195 39.9245 35.1638 38.4281 33.5317 37.3486C31.8996 36.2691 30.8524 37.5652 30.6747 39.4688C30.5852 40.6457 30.9137 41.8164 31.6022 42.7751L33.1406 43.2986L34.3041 42.4971Z" fill="#F5D5D5"/>
<path d="M35.8232 62.0244C35.2155 66.3326 34.5562 68.3849 34.233 71.6717C33.9098 74.9586 33.4897 80.1168 33.0954 82.0139C32.8336 83.2841 31.0981 83.1516 31.2079 82.0139C31.3146 80.9377 30.9849 73.4558 30.7425 71.4746C30.5002 69.4934 30.0962 60.9837 30.0962 60.9837L35.6454 56.6077L35.8232 62.0244Z" fill="url(#paint6_linear_101_17756)"/>
<path d="M38.2698 81.5001C39.1294 82.2241 39.3072 82.1465 39.4203 82.6507C39.5334 83.1549 38.1534 82.8511 37.5038 82.6087C37.1913 82.4876 36.9129 82.2924 36.6926 82.0399C36.4211 81.6876 36.1496 81.8621 35.6389 81.6876C35.1283 81.5131 35.0669 81.0153 35.2899 80.2397C35.5129 79.464 36.9931 80.2397 37.3163 80.4756C37.6589 80.7932 37.9776 81.1356 38.2698 81.5001Z" fill="#000070"/>
<path d="M37.6621 62.1796C38.9355 66.4845 38.7125 66.1193 38.3893 69.4062C38.0661 72.6931 37.6459 77.8512 37.2516 79.7484C36.9899 81.0185 35.2543 80.886 35.3642 79.7484C35.4709 78.6721 35.1444 71.187 34.8988 69.209C34.6532 67.2311 34.2524 58.7182 34.2524 58.7182L35.8005 55.4119L37.6621 62.1796Z" fill="url(#paint7_linear_101_17756)"/>
<path d="M35.18 39.2265C34.5336 39.3946 34.4366 39.6854 34.1134 39.9795C33.7902 40.2737 33.509 40.5193 33.2182 40.3027C32.6526 39.9149 32.8013 39.5432 32.5201 39.2103C32.2389 38.8775 32.1969 38.9162 32.4199 38.564C32.6429 38.2117 32.7625 38.2602 33.1988 38.2634C33.6148 38.2523 34.028 38.1926 34.4301 38.0856L34.5788 38.2505C34.5788 38.2505 35.3997 37.3843 34.6176 36.7379C33.8355 36.0915 32.4037 35.9235 31.5763 36.5505C31.5763 36.5505 30.5647 36.3501 29.9604 37.8723C29.356 39.3946 30.8847 42.0738 31.2984 42.2839C31.6216 42.4552 31.8931 42.3033 32.0385 41.686C32.1839 41.0687 32.2357 40.7164 31.8801 40.5257C31.5246 40.3351 31.3566 39.6693 31.7412 39.5239C32.1258 39.3784 32.2712 39.4334 32.4845 39.7695C32.6978 40.1056 33.0501 41.6699 33.3475 41.9252C33.6448 42.1805 34.275 41.7054 34.776 41.6828C34.8976 41.676 35.0195 41.676 35.1412 41.6828C36.1722 41.5406 35.9039 39.0326 35.18 39.2265Z" fill="#010854"/>
<path d="M35.2769 41.4402C35.1638 41.3142 34.7243 41.6826 34.3074 40.7938C34.2072 40.5838 33.3378 40.8326 33.215 40.6419C33.0922 40.4512 34.7695 40.2994 35.2608 40.1151C35.752 39.9309 35.222 39.2393 35.3933 39.0938C35.5646 38.9484 35.9686 39.8663 36.0397 40.2703C36.0833 40.537 36.1448 40.8004 36.2239 41.0589C36.2239 41.0589 36.3273 42.5843 35.2769 41.4402Z" fill="#F5D5D5"/>
<path d="M28.9747 45.8744L30.7425 44.711C31.5376 43.457 31.6022 42.7718 31.6022 42.7718C32.5104 42.9507 33.4514 42.8539 34.3041 42.4939C34.3041 42.4939 34.0423 43.276 34.3235 43.6056C36.2627 43.987 36.7507 44.8984 37.3842 45.6062C36.6307 44.3497 35.9424 43.0552 35.3222 41.7279C35.1541 41.3433 36.1205 40.4642 36.3208 40.8294C36.602 41.3433 43.2307 50.5252 40.4836 50.3862C37.7364 50.2473 36.7507 49.1646 36.7507 49.1646C36.7507 49.1646 39.1844 62.784 39.11 65.1239C38.8935 72.1954 29.1104 73.0454 28.8939 68.7307C28.7161 65.2047 29.2978 57.8843 28.687 54.7041C28.687 54.7203 26.9967 47.3385 28.9747 45.8744Z" fill="url(#paint8_linear_101_17756)"/>
<path d="M28.6127 56.4203C28.9359 55.6737 28.9003 56.3072 29.6792 56.8405C30.301 57.0826 30.9538 57.236 31.6184 57.2962C32.4264 57.3673 32.0192 58.6794 30.6973 58.7893C29.3754 58.8992 29.369 58.3659 28.7904 58.0977C28.0018 57.7454 28.6127 56.4203 28.6127 56.4203Z" fill="#F5D5D5"/>
<path d="M28.742 46.0974C25.0996 50.2181 21.8644 54.4003 24.395 56.6885C25.8106 57.9813 28.7161 58.4628 29.0361 58.1364C29.1447 58.0454 29.2321 57.9317 29.2921 57.8032C29.3521 57.6748 29.3831 57.5348 29.3831 57.393C29.3831 57.2513 29.3521 57.1113 29.2921 56.9829C29.2321 56.8544 29.1447 56.7407 29.0361 56.6497C29.0361 56.6497 26.8707 55.3246 26.8707 54.5005C26.8707 54.1579 29.4562 50.593 29.4562 49.9757C29.4788 47.2674 28.742 46.0974 28.742 46.0974Z" fill="#D0D3F5"/>
<path d="M34.3009 42.4971C33.4493 42.8574 32.5093 42.9542 31.6022 42.775C31.6022 42.775 31.5343 43.457 30.7393 44.7142L30.5615 44.8305C32.6817 46.3172 33.703 48.2144 34.2395 47.9073C34.776 47.6003 34.3203 43.6089 34.3203 43.6089C34.0423 43.2792 34.3009 42.4971 34.3009 42.4971Z" fill="#010854"/>
<defs>
<linearGradient id="paint0_linear_101_17756" x1="60.5022" y1="85.1975" x2="138.421" y2="85.1975" gradientUnits="userSpaceOnUse">
<stop stop-color="#BCC0E5"/>
<stop offset="1" stop-color="#BCC0E5" stop-opacity="0"/>
</linearGradient>
<linearGradient id="paint1_linear_101_17756" x1="119.269" y1="94.15" x2="-0.290563" y2="94.15" gradientUnits="userSpaceOnUse">
<stop offset="0.4" stop-color="#BCC0E5"/>
<stop offset="0.61" stop-color="#D0D3F5"/>
</linearGradient>
<linearGradient id="paint2_linear_101_17756" x1="0.498046" y1="79.4254" x2="120.503" y2="79.4254" gradientUnits="userSpaceOnUse">
<stop stop-color="#F7F8FF"/>
<stop offset="1" stop-color="#F2F3FA"/>
</linearGradient>
<linearGradient id="paint3_linear_101_17756" x1="76.7169" y1="25.8495" x2="68.4722" y2="40.2963" gradientUnits="userSpaceOnUse">
<stop stop-color="#FFAD6F"/>
<stop offset="1" stop-color="#FF5A6F"/>
</linearGradient>
<linearGradient id="paint4_linear_101_17756" x1="61.905" y1="83.3428" x2="69.0531" y2="66.4131" gradientUnits="userSpaceOnUse">
<stop stop-color="#FF5A6F"/>
<stop offset="1" stop-color="#FFAD6F" stop-opacity="0.63"/>
</linearGradient>
<linearGradient id="paint5_linear_101_17756" x1="29.4498" y1="82.9224" x2="64.3095" y2="82.9224" gradientUnits="userSpaceOnUse">
<stop stop-color="#BCC0E5"/>
<stop offset="1" stop-color="#BCC0E5" stop-opacity="0"/>
</linearGradient>
<linearGradient id="paint6_linear_101_17756" x1="37.0998" y1="94.3082" x2="32.449" y2="62.716" gradientUnits="userSpaceOnUse">
<stop stop-color="#5B68F5"/>
<stop offset="1" stop-color="#010854"/>
</linearGradient>
<linearGradient id="paint7_linear_101_17756" x1="40.0731" y1="93.8687" x2="35.4224" y2="62.2797" gradientUnits="userSpaceOnUse">
<stop stop-color="#5B68F5"/>
<stop offset="1" stop-color="#010854"/>
</linearGradient>
<linearGradient id="paint8_linear_101_17756" x1="40.5805" y1="71.7203" x2="24.256" y2="34.8245" gradientUnits="userSpaceOnUse">
<stop stop-color="#BCC0E5"/>
<stop offset="1" stop-color="white"/>
</linearGradient>
<clipPath id="clip0_101_17756">
<rect width="15.8902" height="15.8902" fill="white" transform="matrix(-0.867554 -0.497342 0.003066 0.999995 58.8145 41.9109)"/>
</clipPath>
</defs>
</svg>
